<?xml version="1.0" encoding="UTF-8"?>
<svg id="a" data-name="图层 1" xmlns="http://www.w3.org/2000/svg" viewBox="0 0 191.11 51.54">
  <defs>
    <style>
      .b {
        fill: none;
      }

      .c {
        fill: #FFFFFF;
      }
    </style>
  </defs>
  <g>
    <g>
      <polygon class="c" points="0 51.54 10.41 51.54 10.41 29.64 31.92 29.64 31.92 20.92 10.41 20.92 0 20.92 0 51.54"/>
      <polygon class="c" points="35.33 8.72 35.33 0 0 0 0 8.72 10.41 8.72 35.33 8.72"/>
    </g>
    <g>
      <path class="b" d="M127.99,29.81c-1.42-.49-4.49-.74-9.23-.74h-8.4v13.78h9.63c3.75,0,6.13-.11,7.14-.32,1.55-.28,2.81-.97,3.78-2.06s1.46-2.55,1.46-4.38c0-1.55-.38-2.86-1.12-3.94s-1.83-1.86-3.25-2.36Z"/>
      <path class="b" d="M117.18,20.5c4.05,0,6.57-.06,7.56-.18,1.78-.21,3.18-.83,4.2-1.85s1.53-2.36,1.53-4.03-.44-2.89-1.32-3.88c-.88-1-2.19-1.6-3.92-1.81-1.03-.12-4-.18-8.89-.18h-5.98v11.92h6.82Z"/>
      <path class="c" d="M140.59,28.83c-1.69-2.2-4.1-3.76-7.24-4.68,2.23-1.01,3.99-2.52,5.29-4.54,1.3-2.02,1.95-4.23,1.95-6.64,0-2.23-.53-4.24-1.58-6.03s-2.37-3.23-3.96-4.31c-1.58-1.08-3.38-1.79-5.38-2.13-2-.34-5.04-.51-9.12-.51h-20.6v8.58h16.38c4.9,0,7.86.06,8.89.18,1.73.21,3.04.81,3.92,1.81.88,1,1.32,2.29,1.32,3.88s-.51,3.01-1.53,4.03-2.42,1.63-4.2,1.85c-.98.12-3.5.18-7.56.18h-17.23v31.04h17.54c6.63-.05,10.82-.16,12.55-.35,2.77-.3,5.09-1.12,6.98-2.44s3.38-3.09,4.46-5.31,1.63-4.49,1.63-6.84c0-2.98-.84-5.57-2.53-7.77ZM130.9,40.48c-.97,1.09-2.23,1.78-3.78,2.06-1.01.21-3.39.32-7.14.32h-9.63v-13.78h8.4c4.73,0,7.81.25,9.23.74s2.5,1.28,3.25,2.36,1.12,2.39,1.12,3.94c0,1.83-.49,3.29-1.46,4.38Z"/>
    </g>
    <g>
      <polygon class="c" points="190.12 8.72 190.12 0 151.91 0 151.91 8.72 162.32 8.72 190.12 8.72"/>
      <polygon class="c" points="162.32 42.86 162.32 28.83 188.19 28.83 188.19 20.14 162.32 20.14 151.91 20.14 151.91 51.54 191.11 51.54 191.11 42.86 162.32 42.86"/>
    </g>
  </g>
  <g>
    <path class="b" d="M55.71,25.15l5.87-15.57c-6.85,2.2-11.82,8.61-11.82,16.2,0,6.49,3.63,12.12,8.97,14.99l3.53-15.61h-6.56Z"/>
    <path class="b" d="M73.11,9.99l-4.29,15.15h9.01l-15.95,16.92c1.55.46,3.18.72,4.88.72,9.39,0,17.01-7.62,17.01-17.01,0-7.15-4.42-13.26-10.68-15.78Z"/>
    <path class="c" d="M66.78,0c-14.23,0-25.77,11.54-25.77,25.77s11.54,25.77,25.77,25.77,25.77-11.54,25.77-25.77S81.01,0,66.78,0ZM66.78,42.78c-1.7,0-3.34-.26-4.88-.72l-4.54,4.82,1.38-6.12c-5.34-2.87-8.97-8.5-8.97-14.99,0-7.58,4.96-14,11.82-16.2l.68-1.81h11.47l-.63,2.23c6.25,2.51,10.68,8.62,10.68,15.78,0,9.39-7.62,17.01-17.01,17.01Z"/>
    <polygon class="c" points="68.83 25.15 73.11 9.99 73.75 7.76 62.27 7.76 61.59 9.57 55.71 25.15 62.27 25.15 58.74 40.76 57.35 46.88 61.9 42.06 77.84 25.15 68.83 25.15"/>
  </g>
</svg>